<mxfile host="app.diagrams.net" modified="2021-10-23T03:42:05.278Z" agent="5.0 (Windows NT 10.0; Win64; x64) AppleWebKit/537.36 (KHTML, like Gecko) Chrome/95.0.4638.54 Safari/537.36" etag="ZN7ag4c0VRvrtJSWWEa0" version="15.2.7" type="github">
  <diagram id="piDafpqhtRUU5qUU-vj8" name="Page-1">
    <mxGraphModel dx="1422" dy="762" grid="1" gridSize="10" guides="1" tooltips="1" connect="1" arrows="1" fold="1" page="1" pageScale="1" pageWidth="827" pageHeight="1169" math="0" shadow="0">
      <root>
        <mxCell id="0" />
        <mxCell id="1" parent="0" />
        <mxCell id="mGO5uyIto1JREqkk8PXR-2" value="&lt;font style=&quot;font-size: 20px&quot;&gt;政务业务系统&lt;/font&gt;" style="rounded=1;whiteSpace=wrap;html=1;fillColor=#d5e8d4;strokeColor=#82b366;" vertex="1" parent="1">
          <mxGeometry x="70" y="140" width="910" height="180" as="geometry" />
        </mxCell>
        <mxCell id="mGO5uyIto1JREqkk8PXR-3" value="浏览器" style="rounded=0;whiteSpace=wrap;html=1;fillColor=#fff2cc;strokeColor=#d6b656;" vertex="1" parent="1">
          <mxGeometry x="90" y="250" width="100" height="40" as="geometry" />
        </mxCell>
        <mxCell id="mGO5uyIto1JREqkk8PXR-4" value="小程序" style="rounded=0;whiteSpace=wrap;html=1;fillColor=#fff2cc;strokeColor=#d6b656;" vertex="1" parent="1">
          <mxGeometry x="350" y="250" width="100" height="40" as="geometry" />
        </mxCell>
        <mxCell id="mGO5uyIto1JREqkk8PXR-5" value="APP&lt;span style=&quot;white-space: pre&quot;&gt;	&lt;/span&gt;" style="rounded=0;whiteSpace=wrap;html=1;fillColor=#fff2cc;strokeColor=#d6b656;" vertex="1" parent="1">
          <mxGeometry x="220" y="250" width="100" height="40" as="geometry" />
        </mxCell>
        <mxCell id="mGO5uyIto1JREqkk8PXR-6" value="公众号" style="rounded=0;whiteSpace=wrap;html=1;fillColor=#fff2cc;strokeColor=#d6b656;" vertex="1" parent="1">
          <mxGeometry x="480" y="250" width="100" height="40" as="geometry" />
        </mxCell>
        <mxCell id="mGO5uyIto1JREqkk8PXR-7" value="一体机" style="rounded=0;whiteSpace=wrap;html=1;fillColor=#fff2cc;strokeColor=#d6b656;" vertex="1" parent="1">
          <mxGeometry x="610" y="250" width="100" height="40" as="geometry" />
        </mxCell>
        <mxCell id="mGO5uyIto1JREqkk8PXR-8" value="&lt;font style=&quot;font-size: 20px&quot;&gt;粤治慧平台&lt;/font&gt;" style="rounded=1;whiteSpace=wrap;html=1;fillColor=#dae8fc;strokeColor=#6c8ebf;" vertex="1" parent="1">
          <mxGeometry x="305" y="440" width="440" height="70" as="geometry" />
        </mxCell>
        <mxCell id="mGO5uyIto1JREqkk8PXR-10" value="&lt;font style=&quot;font-size: 20px&quot;&gt;广东省统一认证服务&lt;/font&gt;" style="rounded=1;whiteSpace=wrap;html=1;fillColor=#f5f5f5;strokeColor=#666666;fontColor=#333333;" vertex="1" parent="1">
          <mxGeometry x="305" y="630" width="440" height="70" as="geometry" />
        </mxCell>
        <mxCell id="mGO5uyIto1JREqkk8PXR-14" value="厅局专题系统" style="rounded=0;whiteSpace=wrap;html=1;fillColor=#fff2cc;strokeColor=#d6b656;" vertex="1" parent="1">
          <mxGeometry x="740" y="250" width="100" height="40" as="geometry" />
        </mxCell>
        <mxCell id="mGO5uyIto1JREqkk8PXR-15" value="地市专题系统" style="rounded=0;whiteSpace=wrap;html=1;fillColor=#fff2cc;strokeColor=#d6b656;" vertex="1" parent="1">
          <mxGeometry x="860" y="250" width="100" height="40" as="geometry" />
        </mxCell>
        <mxCell id="mGO5uyIto1JREqkk8PXR-22" value="" style="shape=flexArrow;endArrow=classic;startArrow=classic;html=1;startWidth=38;startSize=8;width=41;endWidth=38;endSize=8;exitX=0.486;exitY=-0.014;exitDx=0;exitDy=0;exitPerimeter=0;" edge="1" parent="1" source="mGO5uyIto1JREqkk8PXR-8">
          <mxGeometry width="100" height="100" relative="1" as="geometry">
            <mxPoint x="520" y="420" as="sourcePoint" />
            <mxPoint x="520" y="320" as="targetPoint" />
          </mxGeometry>
        </mxCell>
        <mxCell id="mGO5uyIto1JREqkk8PXR-23" value="单点登录" style="edgeLabel;html=1;align=center;verticalAlign=middle;resizable=0;points=[];" vertex="1" connectable="0" parent="mGO5uyIto1JREqkk8PXR-22">
          <mxGeometry x="-0.0907" y="-10" relative="1" as="geometry">
            <mxPoint x="-9" as="offset" />
          </mxGeometry>
        </mxCell>
        <mxCell id="mGO5uyIto1JREqkk8PXR-24" value="" style="shape=flexArrow;endArrow=classic;startArrow=classic;html=1;startWidth=38;startSize=8;width=41;endWidth=38;endSize=8;exitX=0.486;exitY=-0.014;exitDx=0;exitDy=0;exitPerimeter=0;" edge="1" parent="1">
          <mxGeometry width="100" height="100" relative="1" as="geometry">
            <mxPoint x="524.42" y="630" as="sourcePoint" />
            <mxPoint x="525.58" y="510.98" as="targetPoint" />
          </mxGeometry>
        </mxCell>
        <mxCell id="mGO5uyIto1JREqkk8PXR-27" value="统一认证" style="edgeLabel;html=1;align=center;verticalAlign=middle;resizable=0;points=[];" vertex="1" connectable="0" parent="mGO5uyIto1JREqkk8PXR-24">
          <mxGeometry x="0.09" y="14" relative="1" as="geometry">
            <mxPoint x="14" y="5" as="offset" />
          </mxGeometry>
        </mxCell>
      </root>
    </mxGraphModel>
  </diagram>
</mxfile>
